<?xml version="1.0" standalone="no"?>
<!DOCTYPE svg PUBLIC "-//W3C//DTD SVG 20010904//EN"
 "http://www.w3.org/TR/2001/REC-SVG-20010904/DTD/svg10.dtd">
<svg version="1.0" xmlns="http://www.w3.org/2000/svg"
 width="683.000000pt" height="683.000000pt" viewBox="0 0 683.000000 683.000000"
 preserveAspectRatio="xMidYMid meet">

<g transform="translate(0.000000,683.000000) scale(0.100000,-0.100000)"
fill="#000000" stroke="none">
<path d="M3293 6363 c-23 -8 -65 -35 -92 -59 -60 -54 -89 -121 -98 -232 -4
-48 -11 -80 -19 -85 -24 -14 -17 -82 11 -115 13 -16 33 -54 45 -84 11 -31 27
-62 35 -68 22 -19 19 -134 -4 -187 -29 -64 -115 -105 -283 -137 -90 -17 -125
-34 -173 -82 -90 -89 -115 -209 -115 -540 0 -337 -18 -451 -99 -612 -38 -76
-59 -171 -72 -327 -19 -228 -36 -280 -128 -395 -72 -89 -141 -213 -141 -253 0
-29 33 -62 52 -51 7 4 23 16 35 27 l23 20 -25 -74 c-32 -91 -31 -152 2 -157
15 -2 29 7 45 28 l23 32 6 -67 c6 -65 19 -88 44 -79 15 6 35 48 36 77 0 18 3
16 12 -10 7 -18 19 -40 28 -48 15 -15 18 -14 38 11 11 14 21 40 21 55 0 33 7
36 25 12 7 -9 19 -14 27 -10 17 6 29 162 32 397 1 119 3 128 32 185 17 33 58
113 91 177 90 174 134 316 144 458 7 112 23 210 39 239 13 23 24 -166 25 -394
0 -195 -2 -213 -22 -257 -37 -80 -81 -258 -94 -377 -11 -110 -10 -149 11 -406
12 -148 65 -494 91 -595 13 -50 23 -139 29 -268 l10 -193 -27 -87 c-50 -166
-30 -323 87 -682 54 -164 63 -206 67 -300 4 -83 1 -105 -22 -175 -15 -44 -29
-106 -32 -137 l-6 -58 36 -15 c27 -11 76 -15 192 -15 l155 0 0 35 c0 19 -11
69 -25 112 -14 43 -35 128 -46 188 -11 61 -29 148 -41 195 -18 77 -19 101 -13
250 12 254 11 396 -3 505 -14 99 -13 101 21 280 55 279 117 746 117 878 0 59
2 67 19 67 16 0 20 -9 23 -57 21 -296 79 -749 114 -901 31 -131 34 -180 17
-296 -11 -80 -13 -148 -9 -241 20 -411 20 -385 -3 -472 -11 -45 -30 -136 -41
-203 -10 -66 -22 -125 -26 -131 -12 -20 -33 -124 -34 -167 l0 -44 163 4 c138
2 167 6 191 22 26 17 28 22 23 66 -3 27 -20 81 -37 122 -31 71 -32 76 -27 188
4 91 10 129 30 181 32 85 122 412 138 503 17 102 6 244 -26 331 -18 47 -25 80
-20 100 3 17 10 104 15 195 5 91 16 188 24 215 19 64 39 183 76 442 48 349 54
428 41 534 -14 110 -56 277 -101 404 l-33 90 7 250 c3 138 10 268 14 290 l8
40 17 -72 c9 -40 17 -102 17 -138 0 -153 73 -372 187 -565 18 -30 44 -84 59
-119 25 -62 26 -74 30 -304 3 -132 9 -248 15 -258 13 -26 36 -24 51 4 11 21
12 20 20 -18 23 -111 77 -113 79 -3 l1 43 16 -60 c12 -41 23 -61 35 -63 32 -6
47 17 47 74 0 30 3 54 6 54 3 0 15 -11 26 -26 27 -34 62 -29 66 9 3 24 -21
121 -44 182 -5 12 4 9 31 -9 30 -21 41 -23 57 -15 17 9 19 17 14 52 -9 53 -45
117 -145 257 -44 61 -85 128 -91 148 -5 20 -17 102 -25 182 -22 212 -42 305
-80 386 -75 157 -105 350 -105 670 -1 150 -5 250 -14 289 -15 68 -52 148 -89
187 -36 38 -112 74 -188 87 -85 14 -174 45 -221 76 -77 51 -92 166 -38 282 33
71 38 79 70 128 26 40 26 91 0 105 -17 9 -20 21 -20 79 0 104 -22 165 -83 226
-35 34 -69 57 -101 68 -62 21 -195 21 -253 0z"/>
</g>
</svg>
