<?xml version="1.0" standalone="no"?>
<!DOCTYPE svg PUBLIC "-//W3C//DTD SVG 20010904//EN"
 "http://www.w3.org/TR/2001/REC-SVG-20010904/DTD/svg10.dtd">
<svg version="1.0" xmlns="http://www.w3.org/2000/svg"
 width="3072.000000pt" height="2234.000000pt" viewBox="0 0 3072.000000 2234.000000"
 preserveAspectRatio="xMidYMid meet">

<g transform="translate(0.000000,2234.000000) scale(0.100000,-0.100000)"
fill="#000000" stroke="none">
<path d="M9170 12150 l0 -990 678 0 679 0 17 123 c9 67 19 137 22 155 l6 32
-516 0 -516 0 0 275 0 275 460 0 460 0 0 155 0 155 -460 0 -460 0 0 255 0 255
490 0 490 0 0 150 0 150 -675 0 -675 0 0 -990z"/>
<path d="M10860 12150 l0 -990 650 0 c358 0 650 4 650 8 0 5 9 73 20 152 11
79 20 147 20 152 0 4 -217 9 -482 10 l-483 3 -3 828 -2 827 -185 0 -185 0 0
-990z"/>
<path d="M12460 12149 l0 -991 443 5 c399 4 451 6 532 24 379 86 608 313 690
684 22 99 31 379 16 491 -58 438 -295 691 -715 763 -70 12 -179 15 -527 15
l-439 0 0 -991z m905 666 c194 -41 320 -169 377 -384 25 -96 36 -333 19 -441
-34 -224 -132 -378 -287 -451 -101 -48 -174 -59 -421 -59 l-223 0 0 675 0 675
233 0 c165 0 252 -5 302 -15z"/>
<path d="M14915 13123 c-3 -10 -166 -448 -360 -973 -194 -525 -356 -963 -360
-972 -7 -17 6 -18 181 -18 l189 0 84 240 84 240 392 0 393 0 10 -27 c5 -16 41
-116 80 -223 39 -107 73 -203 77 -212 6 -16 25 -18 196 -18 104 0 189 4 189 9
0 4 -162 449 -359 987 l-360 979 -214 3 c-198 2 -215 1 -222 -15z m364 -763
c78 -222 139 -405 138 -407 -2 -2 -134 -2 -294 -1 l-290 3 77 220 c41 121 107
309 144 419 44 127 72 193 77 184 4 -8 71 -196 148 -418z"/>
<path d="M16320 12150 l0 -990 180 0 180 0 2 691 3 691 445 -691 445 -690 168
-1 167 0 0 990 0 990 -175 0 -175 0 -2 -696 -3 -695 -444 695 -443 696 -174 0
-174 0 0 -990z"/>
<path d="M12236 10095 c-283 -58 -486 -215 -611 -470 -86 -175 -122 -378 -112
-625 14 -327 97 -543 276 -720 99 -97 164 -139 292 -187 125 -47 263 -66 419
-59 240 11 434 85 581 224 181 170 273 381 300 687 14 156 2 353 -30 477 -89
348 -298 570 -617 659 -102 28 -390 36 -498 14z m385 -326 c172 -49 291 -190
350 -414 29 -113 37 -354 15 -488 -58 -351 -257 -530 -571 -514 -216 12 -352
102 -442 295 -88 188 -106 503 -42 731 41 150 135 288 235 347 122 72 299 89
455 43z"/>
<path d="M17660 10095 c-271 -61 -469 -215 -590 -460 -91 -185 -127 -382 -117
-640 10 -232 58 -415 149 -569 53 -91 183 -221 273 -274 180 -105 421 -145
665 -107 342 52 575 270 645 605 8 39 15 82 15 96 l0 24 -186 -2 -186 -3 -19
-73 c-38 -152 -129 -268 -244 -311 -82 -31 -236 -40 -322 -18 -146 38 -243
119 -313 259 -70 144 -83 213 -84 443 -1 177 2 210 22 290 42 164 131 307 232
369 175 110 456 88 572 -43 45 -51 99 -152 119 -221 7 -25 16 -49 20 -54 10
-12 359 35 359 49 0 22 -42 160 -67 219 -50 119 -148 246 -239 307 -56 39
-143 79 -216 100 -97 28 -388 37 -488 14z"/>
<path d="M9170 9070 l0 -990 170 0 170 0 2 700 3 699 254 -699 254 -700 141 0
141 0 248 678 c137 372 255 691 262 707 11 25 13 -78 14 -677 l1 -708 170 0
170 0 0 990 0 990 -218 0 -218 0 -279 -765 c-153 -421 -281 -765 -284 -765 -3
0 -129 344 -280 765 l-275 765 -223 0 -223 0 0 -990z"/>
<path d="M13730 9070 l0 -990 650 0 c358 0 650 4 650 8 0 5 9 73 20 152 11 79
20 147 20 152 0 4 -217 9 -482 10 l-483 3 -3 828 -2 827 -185 0 -185 0 0 -990z"/>
<path d="M15330 9070 l0 -990 678 0 679 0 17 123 c9 67 19 137 22 155 l6 32
-516 0 -516 0 0 275 0 275 460 0 460 0 0 155 0 155 -460 0 -460 0 0 255 0 255
490 0 490 0 0 150 0 150 -675 0 -675 0 0 -990z"/>
<path d="M18990 9468 c0 -326 4 -643 10 -705 32 -397 195 -616 525 -705 68
-18 107 -21 255 -21 148 0 187 3 255 21 261 71 431 236 494 483 37 143 41 237
41 887 l0 632 -184 0 -185 0 -4 -682 c-3 -618 -5 -689 -21 -742 -27 -92 -60
-149 -114 -198 -61 -54 -127 -78 -239 -85 -244 -17 -390 90 -437 320 -14 65
-16 173 -16 732 l0 655 -190 0 -190 0 0 -592z"/>
<path d="M20950 9070 l0 -990 650 0 c358 0 650 4 650 8 0 5 9 73 20 152 11 79
20 147 20 152 0 4 -217 9 -482 10 l-483 3 -3 828 -2 827 -185 0 -185 0 0 -990z"/>
<path d="M23155 10043 c-3 -10 -166 -448 -360 -973 -194 -525 -356 -963 -360
-972 -7 -17 6 -18 181 -18 l189 0 84 240 84 240 392 0 393 0 10 -27 c5 -16 41
-116 80 -223 39 -107 73 -203 77 -212 6 -16 25 -18 196 -18 104 0 189 4 189 9
0 4 -162 449 -359 987 l-360 979 -214 3 c-198 2 -215 1 -222 -15z m364 -763
c78 -222 139 -405 138 -407 -2 -2 -134 -2 -294 -1 l-290 3 77 220 c41 121 107
309 144 419 44 127 72 193 77 184 4 -8 71 -196 148 -418z"/>
<path d="M24550 9071 l0 -991 180 0 180 0 2 383 3 382 221 3 221 2 179 -385
179 -385 197 0 197 0 -128 263 c-71 144 -163 331 -205 416 -42 84 -76 158 -76
165 0 6 20 22 44 34 163 87 263 261 273 477 15 307 -135 514 -434 597 -74 21
-103 22 -555 26 l-478 3 0 -990z m865 684 c43 -8 97 -26 120 -40 92 -53 139
-185 115 -322 -20 -119 -70 -186 -168 -224 -53 -21 -75 -23 -314 -27 l-258 -4
0 316 0 316 214 0 c147 0 238 -5 291 -15z"/>
<path d="M14830 7005 c-266 -54 -463 -206 -585 -450 -85 -169 -125 -359 -125
-585 1 -335 97 -609 278 -786 72 -72 124 -107 225 -154 342 -158 864 -98 1184
137 l53 38 0 423 0 422 -385 0 -385 0 0 -150 0 -150 215 0 215 0 0 -189 0
-189 -33 -20 c-99 -58 -248 -92 -406 -92 -243 0 -396 88 -490 281 -118 245
-117 656 1 897 40 81 129 178 196 215 157 85 427 72 540 -27 47 -41 106 -133
122 -190 7 -26 16 -48 20 -51 6 -4 351 35 358 41 6 4 -18 87 -44 152 -86 220
-270 374 -504 422 -113 23 -347 26 -450 5z"/>
<path d="M19640 7005 c-266 -54 -463 -206 -585 -450 -85 -169 -125 -359 -125
-585 1 -335 97 -609 278 -786 72 -72 124 -107 225 -154 342 -158 864 -98 1184
137 l53 38 0 423 0 422 -385 0 -385 0 0 -150 0 -150 215 0 215 0 0 -189 0
-189 -33 -20 c-99 -58 -248 -92 -406 -92 -243 0 -396 88 -490 281 -118 245
-117 656 1 897 40 81 129 178 196 215 157 85 427 72 540 -27 47 -41 106 -133
122 -190 7 -26 16 -48 20 -51 6 -4 351 35 358 41 6 4 -18 87 -44 152 -86 220
-270 374 -504 422 -113 23 -347 26 -450 5z"/>
<path d="M9170 5980 l0 -990 185 0 185 0 0 990 0 990 -185 0 -185 0 0 -990z"/>
<path d="M9950 5980 l0 -990 170 0 170 0 2 700 3 699 254 -699 254 -700 141 0
141 0 248 678 c137 372 255 691 262 707 11 25 13 -78 14 -677 l1 -708 170 0
170 0 0 990 0 990 -218 0 -218 0 -279 -765 c-153 -421 -281 -765 -284 -765 -3
0 -129 344 -280 765 l-275 765 -223 0 -223 0 0 -990z"/>
<path d="M12915 6953 c-3 -10 -166 -448 -360 -973 -194 -525 -356 -963 -360
-972 -7 -17 6 -18 181 -18 l189 0 84 240 84 240 392 0 393 0 10 -27 c5 -16 41
-116 80 -223 39 -107 73 -203 77 -212 6 -16 25 -18 196 -18 104 0 189 4 189 9
0 4 -162 449 -359 987 l-360 979 -214 3 c-198 2 -215 1 -222 -15z m364 -763
c78 -222 139 -405 138 -407 -2 -2 -134 -2 -294 -1 l-290 3 77 220 c41 121 107
309 144 419 44 127 72 193 77 184 4 -8 71 -196 148 -418z"/>
<path d="M16210 5980 l0 -990 185 0 185 0 0 990 0 990 -185 0 -185 0 0 -990z"/>
<path d="M16990 5980 l0 -990 180 0 180 0 2 691 3 691 445 -691 445 -690 168
-1 167 0 0 990 0 990 -175 0 -175 0 -2 -696 -3 -695 -444 695 -443 696 -174 0
-174 0 0 -990z"/>
</g>
</svg>
