<?xml version="1.0" standalone="no"?>
<!DOCTYPE svg PUBLIC "-//W3C//DTD SVG 20010904//EN"
 "http://www.w3.org/TR/2001/REC-SVG-20010904/DTD/svg10.dtd">
<svg version="1.0" xmlns="http://www.w3.org/2000/svg"
 width="893.000000pt" height="587.000000pt" viewBox="0 0 893.000000 587.000000"
 preserveAspectRatio="xMidYMid meet">

<g transform="translate(0.000000,587.000000) scale(0.100000,-0.100000)"
fill="#000000" stroke="none">
<path d="M4020 5684 c-647 -28 -1286 -159 -1845 -379 -167 -65 -474 -217 -635
-314 -515 -311 -912 -712 -1136 -1148 -312 -609 -291 -1298 57 -1913 42 -74
168 -255 243 -349 89 -111 355 -375 473 -469 537 -425 1162 -705 1923 -861
362 -74 819 -121 1180 -121 141 0 174 8 194 45 17 32 26 35 106 35 l75 1 -240
83 c-416 143 -740 277 -1150 475 -1145 554 -2005 1290 -2366 2026 -232 475
-250 902 -52 1277 211 399 660 691 1318 857 226 56 574 110 920 141 195 18
775 24 1020 11 1156 -63 2417 -341 3447 -760 98 -40 138 -51 175 -50 26 1 63
-2 82 -6 l35 -7 -17 24 c-9 12 -32 46 -50 73 -66 99 -356 352 -562 491 -66 45
-176 115 -245 156 -123 74 -430 233 -430 222 0 -3 -20 7 -45 22 -25 14 -45 23
-45 19 0 -3 -12 0 -27 8 -42 22 -65 31 -218 85 -458 164 -916 262 -1425 306
-176 16 -602 27 -760 20z"/>
<path d="M2928 3743 l462 -3 0 -110 0 -110 -360 0 -360 0 0 -153 0 -152 303 3
c166 1 313 4 327 6 14 2 -93 4 -238 5 l-263 1 -24 24 c-46 46 -45 129 2 166
24 19 39 20 292 20 146 0 284 5 306 10 22 5 50 21 63 35 19 22 22 38 22 106 0
90 -14 129 -55 147 -19 9 -145 11 -483 10 l-457 -3 463 -2z"/>
<path d="M5225 3740 c175 -4 320 -12 349 -19 192 -47 336 -213 382 -441 24
-122 22 -340 -4 -440 -56 -214 -167 -344 -341 -402 -61 -21 -90 -23 -406 -28
-365 -5 -375 -7 -312 -54 28 -20 38 -21 335 -20 342 1 395 8 506 66 91 48 186
149 235 250 62 128 75 196 75 383 -1 192 -17 274 -76 395 -70 144 -198 255
-343 298 -39 12 -121 15 -375 17 l-325 2 300 -7z"/>
<path d="M6753 3743 c32 -2 81 -2 110 0 29 2 3 3 -58 3 -60 0 -84 -1 -52 -3z"/>
<path d="M7802 3743 l96 -4 267 -437 c147 -240 272 -441 276 -447 5 -5 8 171
7 405 l-2 415 -6 -285 c-3 -157 -9 -291 -13 -297 -12 -19 -51 -16 -69 5 -9 9
-93 143 -188 297 -94 154 -181 291 -193 304 -37 40 -78 51 -179 49 l-93 -2 97
-3z"/>
<path d="M8553 3743 c26 -2 68 -2 95 0 26 2 4 3 -48 3 -52 0 -74 -1 -47 -3z"/>
<path d="M3808 3733 c29 -2 74 -2 100 0 26 2 2 3 -53 3 -55 0 -76 -1 -47 -3z"/>
<path d="M6920 3732 c0 -4 119 -304 264 -665 l265 -658 -146 3 -146 3 -56 147
-56 148 -270 0 -270 0 -54 -150 -53 -150 -129 0 c-72 0 -130 -4 -134 -10 -10
-16 14 -49 43 -57 15 -5 70 -8 122 -8 146 1 166 19 234 207 31 84 53 92 246
96 90 2 179 1 197 -3 53 -10 87 -47 117 -127 57 -156 80 -173 244 -173 112 0
114 0 138 28 13 15 24 39 24 53 0 13 -111 302 -247 641 -200 501 -253 624
-279 651 -30 30 -54 41 -54 24z"/>
<path d="M8700 3075 l0 -665 -137 0 -138 1 -27 44 c-15 25 -134 219 -265 431
l-238 386 -3 -430 -2 -431 -123 -3 c-133 -3 -148 -11 -94 -52 24 -18 42 -21
120 -21 105 1 138 15 156 67 7 19 11 133 11 298 0 225 2 270 15 280 37 31 57
8 230 -272 92 -150 179 -288 192 -306 41 -54 75 -66 193 -66 122 -1 153 13
170 73 8 24 10 241 8 658 l-3 621 -24 26 c-14 14 -28 26 -33 26 -4 0 -8 -299
-8 -665z"/>
<path d="M3960 3180 l0 -550 335 0 335 0 0 -110 0 -110 -464 0 c-257 0 -467
-4 -470 -9 -12 -18 44 -58 90 -65 73 -10 784 -7 829 4 22 5 50 21 63 35 19 22
22 38 22 105 0 158 -4 160 -335 160 -278 0 -300 4 -323 55 -9 19 -12 154 -12
500 l0 473 -26 31 c-14 17 -30 31 -35 31 -5 0 -9 -226 -9 -550z"/>
<path d="M4855 3040 c0 -349 1 -492 2 -317 2 174 2 460 0 635 -1 174 -2 31 -2
-318z"/>
<path d="M7635 3040 c0 -349 1 -492 2 -317 2 174 2 460 0 635 -1 174 -2 31 -2
-318z"/>
<path d="M2395 3045 c0 -341 1 -482 2 -313 2 169 2 448 0 620 -1 172 -2 34 -2
-307z"/>
<path d="M3685 3040 c0 -338 1 -477 2 -307 2 169 2 445 0 615 -1 169 -2 30 -2
-308z"/>
<path d="M5130 3077 l0 -447 163 2 c151 1 155 2 59 7 -98 6 -105 8 -128 34
l-24 28 0 339 0 338 27 32 27 32 116 -4 c102 -3 124 -7 172 -31 97 -48 133
-130 147 -334 l8 -118 1 110 c3 189 -22 285 -93 363 -59 66 -118 82 -312 89
l-163 6 0 -446z"/>
<path d="M6766 3420 c-30 -73 -176 -484 -173 -487 2 -2 85 -2 184 -1 l180 3
-88 240 c-49 132 -91 245 -93 250 -2 6 -6 3 -10 -5z m72 -252 c20 -24 61 -148
55 -166 -14 -40 -46 -62 -90 -62 -47 0 -78 22 -88 62 -7 25 39 158 58 170 19
12 53 9 65 -4z"/>
<path d="M3340 3110 l0 -110 -335 0 -335 0 0 -185 0 -185 373 2 372 2 -305 6
c-168 3 -313 9 -323 14 -30 14 -47 61 -47 128 0 72 25 124 62 133 13 2 142 6
286 7 l264 3 29 33 c27 30 29 38 29 116 0 76 -3 87 -26 115 -14 17 -30 31 -35
31 -5 0 -9 -49 -9 -110z"/>
<path d="M5683 2915 c0 -22 2 -30 4 -17 2 12 2 30 0 40 -3 9 -5 -1 -4 -23z"/>
<path d="M5671 2854 c0 -11 3 -14 6 -6 3 7 2 16 -1 19 -3 4 -6 -2 -5 -13z"/>
<path d="M5468 2643 c6 -2 18 -2 25 0 6 3 1 5 -13 5 -14 0 -19 -2 -12 -5z"/>
<path d="M3420 2520 l0 -110 -504 0 c-280 0 -507 -4 -510 -9 -3 -5 6 -20 20
-34 36 -36 82 -39 569 -35 388 3 422 4 447 21 36 25 51 75 46 157 -3 56 -8 74
-28 95 -13 14 -27 25 -32 25 -4 0 -8 -49 -8 -110z"/>
<path d="M2995 2079 c-66 -25 -124 -107 -125 -179 -2 -58 -18 -5 -19 61 -1 51
-4 59 -36 87 -30 28 -42 32 -89 32 l-55 0 -11 -42 c-31 -122 -41 -133 -59 -64
-16 66 -71 106 -145 106 l-56 0 0 -200 c0 -171 2 -200 15 -200 8 0 15 -7 15
-15 0 -8 11 -22 24 -30 23 -15 27 -15 64 6 l39 23 38 -24 38 -23 42 23 42 23
38 -23 37 -23 26 20 c23 17 28 30 33 86 5 60 13 88 22 76 2 -2 19 -31 38 -63
98 -169 305 -163 390 12 l23 47 9 -57 c5 -32 13 -58 18 -58 5 0 9 -6 9 -14 0
-8 10 -22 22 -30 33 -23 224 -22 273 1 33 16 37 16 70 0 28 -13 64 -17 159
-17 106 0 125 2 139 18 25 27 21 55 -13 85 -26 23 -38 27 -96 27 -57 0 -65 2
-62 18 3 13 17 18 69 22 36 3 73 11 82 19 26 21 20 54 -14 84 -25 22 -41 27
-81 27 -35 0 -48 4 -46 13 3 7 32 14 77 17 57 4 76 9 87 24 24 34 19 45 -40
94 -10 8 -58 12 -156 12 l-140 0 0 -162 c0 -90 -3 -173 -6 -185 -8 -28 -28
-29 -54 -3 -14 14 -36 20 -82 22 l-63 3 -5 132 -5 133 -33 30 c-24 21 -43 30
-68 30 l-34 0 -1 -57 c0 -32 -4 -76 -8 -98 l-8 -40 -16 37 c-23 51 -71 104
-123 134 -50 30 -141 40 -189 23z m164 -144 c18 -18 19 -92 1 -134 -13 -33
-54 -61 -89 -61 -51 0 -77 135 -35 181 36 40 90 46 123 14z"/>
<path d="M4177 2076 c-79 -29 -116 -91 -117 -197 0 -186 182 -317 316 -227 37
26 74 77 74 104 0 26 -40 61 -82 72 -31 8 -34 6 -53 -27 -26 -45 -68 -62 -93
-38 -25 25 -24 137 1 165 29 32 54 32 112 1 30 -16 59 -29 65 -29 15 0 50 38
50 55 0 25 -59 83 -112 109 -57 29 -104 32 -161 12z"/>
<path d="M7417 2076 c-80 -30 -120 -96 -121 -196 0 -79 28 -145 89 -206 67
-67 173 -81 265 -34 55 28 73 54 78 116 4 46 1 61 -17 85 -19 26 -21 38 -15
85 6 49 4 58 -17 81 -65 69 -181 100 -262 69z m136 -125 c27 -10 57 -38 57
-52 0 -5 -27 -9 -60 -9 l-60 0 0 -35 c0 -24 5 -35 15 -35 8 0 15 -6 15 -14 0
-7 7 -19 16 -27 14 -12 14 -14 -2 -26 -52 -38 -94 1 -94 87 0 60 17 95 54 110
28 12 31 12 59 1z"/>
<path d="M8445 2079 c-72 -27 -127 -114 -129 -204 -1 -102 92 -230 185 -255
83 -23 205 15 234 71 23 44 19 131 -7 164 -19 24 -20 31 -10 59 7 18 12 39 12
47 0 22 -57 77 -104 101 -47 24 -138 32 -181 17z m153 -139 c51 -31 42 -50
-23 -50 l-55 0 0 -35 c0 -19 3 -35 8 -35 4 0 15 -14 25 -32 20 -34 12 -48 -29
-48 -76 0 -85 173 -10 206 41 18 45 17 84 -6z"/>
<path d="M4488 2028 c-1 -29 -1 -102 1 -163 3 -106 4 -112 37 -162 39 -61 76
-83 148 -90 40 -3 60 0 95 19 80 41 86 57 89 237 l3 158 -35 26 c-22 18 -47
27 -70 27 l-36 0 0 -154 c0 -149 -1 -155 -22 -170 -32 -23 -57 -20 -63 7 -2
12 -6 75 -7 139 l-3 118 -33 30 c-24 21 -43 30 -68 30 l-34 0 -2 -52z"/>
<path d="M4910 1880 c0 -127 4 -200 10 -200 6 0 10 -6 10 -14 0 -8 10 -22 22
-30 18 -13 55 -16 195 -16 l172 0 51 45 c69 61 101 61 171 -1 43 -38 56 -45
78 -39 64 16 83 17 111 5 25 -10 34 -10 55 4 20 13 25 25 25 61 0 44 18 75 45
75 7 0 33 -28 57 -62 47 -68 85 -93 124 -84 40 11 41 47 0 107 -20 30 -36 60
-36 68 0 8 12 32 26 53 31 44 35 104 12 140 -9 13 -35 37 -58 53 -42 29 -48
30 -177 33 l-133 4 0 -188 c0 -184 0 -188 -18 -169 -11 11 -45 84 -77 163 -48
118 -63 146 -87 158 -15 8 -28 19 -28 24 0 6 -19 10 -42 10 l-43 0 -69 -176
c-38 -97 -76 -178 -84 -182 -8 -3 -20 2 -27 11 -8 11 -31 17 -76 19 l-64 3 -5
132 -5 133 -33 30 c-24 21 -43 30 -68 30 l-34 0 0 -200z m985 61 c3 -5 -4 -13
-16 -16 -23 -8 -34 -1 -24 14 8 13 32 14 40 2z"/>
<path d="M6250 1880 c0 -127 4 -200 10 -200 6 0 10 -6 10 -14 0 -16 37 -46 57
-46 7 0 28 14 48 31 l35 31 29 -31 c34 -37 43 -38 87 -10 l33 20 40 -23 40
-23 44 24 44 24 35 -21 c31 -19 37 -20 73 -8 34 12 44 12 68 0 37 -20 64 -10
108 37 31 33 42 39 78 39 36 0 48 -6 82 -40 63 -63 119 -63 119 0 0 15 -29 98
-65 186 -54 131 -72 165 -103 191 -27 24 -47 33 -73 33 l-36 0 -70 -172 c-39
-95 -74 -172 -79 -171 -5 2 -10 68 -12 147 l-3 144 -34 26 c-26 20 -45 26 -87
26 l-53 0 -20 -71 c-11 -39 -24 -71 -29 -72 -5 -1 -15 20 -23 46 -10 35 -22
53 -43 65 -17 9 -30 20 -30 25 0 4 -27 7 -60 7 -60 0 -60 0 -60 -29 0 -43 -11
-44 -54 -5 -27 25 -46 34 -72 34 l-34 0 0 -200z"/>
<path d="M7750 1880 c0 -171 2 -200 15 -200 8 0 15 -7 15 -15 0 -21 45 -48 68
-41 10 4 29 17 42 31 l23 24 34 -29 c40 -36 43 -36 76 -10 20 16 27 31 29 68
3 39 6 47 25 50 16 2 28 -7 48 -42 31 -52 78 -96 105 -96 10 0 28 8 41 19 22
18 23 22 23 201 l0 182 -35 29 c-22 18 -46 29 -66 29 l-33 0 0 -85 c0 -106
-11 -109 -68 -20 -23 36 -53 70 -67 77 -14 6 -25 15 -25 20 0 4 -17 8 -39 8
-36 0 -39 -2 -45 -35 l-7 -36 -43 36 c-32 26 -53 35 -80 35 l-36 0 0 -200z"/>
</g>
</svg>
